<svg width="363" height="489" viewBox="0 0 363 489" fill="none" xmlns="http://www.w3.org/2000/svg">
<path d="M116.796 91.0431L122.68 36.6792L129.871 15.7197L139.024 0L157.33 12.4447L171.059 28.1644L183.481 50.434L218.785 43.2291V47.159L230.552 45.8491L239.052 39.2992L259.972 30.1294L279.586 22.9245L287.431 34.7143L292.007 70.0836V94.3181L298.545 104.798L309.005 125.102L312.928 138.202L314.889 153.267L316.851 159.162L324.277 167.827L333.849 172.916L298.545 221.385L273.048 245.62V250.205L291.354 271.164L305.083 253.48L311.621 258.065L320.12 256.1V282.954L323.389 280.334L327.311 280.989L329.926 285.574L330.58 290.159L329.273 307.189L318.812 322.908V360.243V396.922L330.58 382.512L337.118 373.342L343.656 366.792L353.462 365.482L359.346 376.617L360 391.682L355.424 415.916L346.271 442.771L331.888 457.181L321.427 462.42L312.274 459.801L304.429 448.011L288.085 443.426L266.51 432.946L257.357 434.911L244.936 436.221L239.052 441.461L227.937 446.046L220.746 467.005L207.67 483.38L197.21 486L188.711 482.07L182.173 476.83L164.521 482.07L143.6 480.105L127.91 474.21L112.219 467.005L92.6059 442.771L89.9908 426.396L88.6832 412.642L78.8766 409.367L67.1087 400.197L55.3407 377.272L48.8029 353.693L51.418 311.774L52.7256 291.469L50.3169 268.058L53.8069 266.58L51.418 261.995L45.082 248.895L47.9903 246.496L40.9576 236.45L31.151 225.97L16.768 215.491L5.65378 204.356L5 194.531L9.57643 187.981L17.4217 182.741L30.4972 186.671L46.8416 199.771L67.1087 229.9L78.2228 266.58L80.1842 298.674V353.693L85.4144 370.067L91.2983 375.962L94.5672 366.792L125.295 288.194L129.871 248.895L86.0681 221.385L56.6482 182.741L80.8379 161.782L96.5285 129.032L116.796 91.0431Z" fill="#B2CB35"/>
<path d="M131.151 10.791L139.699 3C154.3 8.62085 166 41.306 166 58.1866C144.959 64.6791 137.097 67.7454 118 90C119.315 68.5746 122.603 51.694 131.151 10.791Z" fill="#879C3B"/>
<path d="M132.064 71.1041C158.397 55.8987 183.966 49.8188 216.696 44C216.696 44 176.46 60.3176 150.493 78.9619C113.161 105.766 118.672 132.413 112.745 151.799C106.819 171.185 102.52 170.954 93.5531 185.065C136.112 241.349 172.499 255.491 260 249.905C211.698 268.243 158.174 263.658 130.759 249.905C94.8585 234.841 75.3094 215.176 57 185.065L80.2246 158.209L88.9356 141.893C116.948 90.2275 126.6 84.4234 132.064 71.1041Z" fill="#879C3B"/>
<path d="M234 44.0645C248.528 34.2077 260.274 30.8454 280 26C280 26 269.458 44.276 264.886 54.3871C262.874 58.8344 260.286 66 260.286 66C248.466 58.9371 243.001 56.6817 235.314 55.6774L239.914 52.4516L235.314 48.5806L234 44.0645Z" fill="#879C3B"/>
<path d="M279.841 32C280.492 49.5471 279.243 59.4231 274.227 77L263 67.2174C267.927 51.9149 271.676 44.2418 279.841 32Z" fill="#879C3B"/>
<path d="M6.61189 190C19.2223 191.608 26.2486 194.65 38.6076 204.378C60.1557 225.292 71.9093 249.473 74.5212 286.071C74.5212 286.071 73.8682 331.82 75.8271 349.466C77.786 367.111 83.1889 372.308 90 375.509L86.5143 404C55.964 375.803 58.0481 353.995 56.8862 283.058C56.6482 268.521 49.9149 269.103 49.9149 269.103L53.4006 265.614L41.7817 247.589L47.5912 246.426L38.2961 231.89L11.8357 211.567L4.65297 204.378L4 199.803V195.882L4.65297 193.268L6.61189 190Z" fill="#879C3B"/>
<path d="M130.653 248C176.74 268.09 206.215 267.851 261 252.578C261 252.578 244.24 268.785 242.66 270.889C241.08 272.992 238.693 274.515 238.075 277.428C237.102 282.006 253.14 289.2 253.14 289.2L179.124 293.777L165.369 297.047C157.101 293.574 157.509 293.123 155.544 291.162C154.115 289.735 150.959 289.2 152.269 291.162C153.579 293.123 159.919 301.404 179.124 314.704C184.364 319.936 181.089 327.13 179.779 327.784C175.48 329.929 169.954 331.053 169.954 331.053H160.128L158.818 346.748L144.408 346.095L129.999 358.52C127.379 361.79 131.309 368.983 134.584 366.367C134.584 366.367 139.534 359.156 144.408 357.212C149.397 355.222 156.969 358.161 161.439 361.136C173.229 368.983 181.004 377.554 196.81 406.913L193.535 416.723C213.185 378.793 225.401 387.948 223.01 435.687C222.355 448.767 221.367 462.29 213.84 472.309C205.98 482.773 197.692 486.381 181.744 474.925C159.475 483.427 133.274 479.503 107.727 460.538C94.6278 426.532 93 400.859 105.763 357.212C124.013 310.63 129.197 286.835 130.653 248Z" fill="#879C3B"/>
<path d="M275.532 426.112L312.11 402H319.949C319.949 402 305.361 418.394 307.321 436.641C308.17 444.546 312.551 450.39 317.781 451.136C330.963 453.015 348 430.843 348 430.843L343.463 442.404L333.665 454.135L329.746 458.697L324.521 460L316.029 459.348L309.498 455.438L304.272 446.966C289.924 443.853 280.158 439.414 269 431.326L275.532 426.112Z" fill="#879C3B"/>
<path d="M267 261C274.544 264.018 278.963 267.471 284 273.941C284 273.941 280.852 277.824 278.963 279.118C276.75 280.634 272.667 283 272.667 283L267 261Z" fill="#879C3B"/>
<path d="M316.333 285.383L319.307 283C312.19 304.724 314.696 314.848 323 318.38L321 321.02L317 323L312.333 322.34L308.333 316.401L307 308.481L307.667 299.242L311 291.323L316.333 285.383Z" fill="#879C3B"/>
<path d="M180.264 185.585C197.582 176.049 197.539 155.121 195.352 145.85C179.139 140.099 156.311 138.873 142.216 139.01C140.248 162.634 158.616 197.506 180.264 185.585Z" fill="#231F20"/>
<path d="M264.888 182.936C253.867 178.698 251.987 158.578 252.424 149.048C265.043 146.1 286.416 141.49 296.376 140.676C297.688 172.589 278.664 188.234 264.888 182.936Z" fill="#231F20"/>
<path d="M135 139.227C136.985 139.118 139.43 139.037 142.216 139.01M142.216 139.01C156.311 138.873 179.139 140.099 195.352 145.85C197.539 155.121 197.582 176.049 180.264 185.585C158.616 197.506 140.248 162.634 142.216 139.01ZM249.144 149.823C250.151 149.582 251.249 149.322 252.424 149.048M299 140.552C298.253 140.552 297.371 140.595 296.376 140.676M252.424 149.048C251.987 158.578 253.867 178.698 264.888 182.936C278.664 188.234 297.688 172.589 296.376 140.676M252.424 149.048C265.043 146.1 286.416 141.49 296.376 140.676" stroke="#231F20" stroke-width="5" stroke-linecap="round"/>
<path d="M186.333 144L195 145.983L197 158.542L191.667 176.39L181 183C187.123 171.691 187.068 163.014 186.333 144Z" fill="white"/>
<path d="M284.667 143.944L296 142L298 145.241L297.333 152.37L290.667 169.87L282 177C286.667 169.87 288 154.963 284.667 143.944Z" fill="white"/>
<path d="M167.333 145L176 145.49C176 145.49 175.333 153.337 172 154.809C170.798 155.339 169.444 154.686 168.667 153.828C166 150.885 167.333 145 167.333 145Z" fill="white"/>
<path d="M261.333 149L270 149.49C270 149.49 269.333 157.337 266 158.809C264.798 159.339 263.444 158.686 262.667 157.828C260 154.885 261.333 149 261.333 149Z" fill="white"/>
<path d="M135 139.227C136.985 139.118 139.43 139.037 142.216 139.01M142.216 139.01C156.311 138.873 179.139 140.099 195.352 145.85C197.539 155.121 197.582 176.049 180.264 185.585C158.616 197.506 140.248 162.634 142.216 139.01ZM249.144 149.823C250.151 149.582 251.249 149.322 252.424 149.048M299 140.552C298.253 140.552 297.371 140.595 296.376 140.676M252.424 149.048C251.987 158.578 253.867 178.698 264.888 182.936C278.664 188.234 297.688 172.589 296.376 140.676M252.424 149.048C265.043 146.1 286.416 141.49 296.376 140.676" stroke="#231F20" stroke-width="5" stroke-linecap="round"/>
<path d="M165.235 278.011H172.432L245.716 302.267L269.272 300.3L279.741 290.467L293.481 278.011L315.728 259H319V282.6L313.335 285.26L309.84 291.778L305.259 302.267V316.033L312.457 323.9H319V397.322L265.346 433.378L234.593 436L230.012 430.756L230.667 416.333L226.741 399.289L217.58 389.456L208.42 388.8L197.296 401.911L191.407 388.8L173.086 362.578L160 350.778V348.156V335.044H180.938L190.099 325.211L183.556 312.756L172.457 302.757L162.561 295.758V285.26L165.235 278.011Z" fill="#EB6D5C"/>
<path d="M180.878 269L205.168 276.66L248.496 287.511L255.718 293.255L259 299H244.557L173 276.66L180.878 269Z" fill="white"/>
<path d="M269.049 286.2L288.439 272.4L299.491 259.783L305.244 254L309.768 255.314L313 258.6L270.341 298.686L260 300L261.939 294.743L269.049 286.2Z" fill="white"/>
<path d="M182.136 476.501C158.579 484.134 107.276 486.446 90.5237 434.629C88.3066 427.771 87.1385 420.774 86.8043 413.693M127.169 249.476C203.6 277.739 255.427 258.635 271.786 245.55M127.169 249.476C106.447 239.444 63.3013 212.183 56.4958 183.396C59.4848 181.528 63.7127 178.729 68.2746 175.456M127.169 249.476C137.912 280.299 103.976 328.457 91.2888 377.055M180.173 470.613C182.791 479.554 192.606 494.035 210.929 480.427C220.683 473.182 225.69 460.122 228.173 447.06M189.989 428.741C192.371 420.405 195.656 412.295 197.961 407.15M197.961 407.15C198.695 405.511 199.33 404.173 199.804 403.225C217.472 371.821 228.888 399.299 229.906 408.459C230.172 410.854 230.871 420.392 230.066 432.012M197.961 407.15C193.165 394.326 178.993 366.279 159.233 351.811M131.095 360.698C139.994 344.996 151.381 346.741 155.961 349.576C156.624 349.997 157.282 350.433 157.933 350.885C158.369 351.187 158.802 351.496 159.233 351.811M153.998 291.348C156.513 292.586 159.432 294.125 162.505 295.879M141.565 325.369C147.619 328.828 154.245 331.429 160.639 332.891M188.297 316.209C190.523 319.492 191.354 322.638 189.989 325.369C188.134 329.079 184.911 331.526 180.828 332.891M188.297 316.209C187.552 318.608 183.838 322.883 174.938 320.789M188.297 316.209C183.502 309.139 172.237 301.434 162.505 295.879M180.828 332.891C178.428 332.128 173.106 330.079 171.012 327.986M180.828 332.891C175.267 334.749 168.111 334.598 160.639 332.891M159.233 351.811L160.639 332.891M162.505 295.879C162.287 288.917 163.29 275.384 169.049 276.954C169.682 277.127 170.801 277.459 172.321 277.924M269.823 300.507C268.296 341.071 265.373 424.423 265.897 433.32M269.823 300.507H258.044M269.823 300.507C281.449 289.06 303.232 268.367 313.666 260.827M319.555 281.534C321.126 260.598 319.774 257.109 318.901 257.981C317.994 257.981 316.152 259.031 313.666 260.827M319.555 281.534C325.009 279.789 334.999 280.749 331.334 298.545C327.67 316.34 321.955 321.661 319.555 322.098M319.555 281.534C315.992 282.163 308.519 287.385 306.084 303.124M319.555 322.098C319.119 343.906 318.378 389.485 318.901 397.337L267.824 432.012M319.555 322.098C314.987 323.377 306.958 322.696 305.705 312.284M265.897 433.32L246.265 435.052M265.897 433.32L267.824 432.012M243.648 435.283C240.483 436.155 233.335 436.723 230.066 432.012M243.648 435.283V413.693M243.648 435.283L246.265 435.052M230.066 432.012C229.735 436.793 229.149 441.927 228.173 447.06M246.265 300.507H242.993C223.191 294.102 184.623 281.684 172.321 277.924M246.265 300.507C246.047 331.693 245.218 395.897 243.648 403.225M246.265 300.507H258.044M172.321 277.924C174.411 274.766 179.563 268.58 183.445 269.103C188.297 269.757 207.657 282.188 222.053 283.497C236.45 284.805 257.39 288.731 258.044 300.507M258.044 300.507C260.285 297.306 265.829 290.984 273.095 285.051M313.666 260.827C313.012 259.224 310.525 255.626 305.814 254.055C301.317 252.557 298.567 260.224 290.603 269.199M246.265 435.052L228.173 447.06M267.824 432.012C276.997 437.246 297.045 447.845 303.85 448.368M303.85 448.368C303.632 447.06 303.196 443.396 303.196 439.209M303.85 448.368C304.941 453.82 309.904 463.374 325.534 461.285C343.88 458.834 366.671 403.225 358.164 373.129C351.358 349.053 327.408 383.161 316.284 403.225M305.705 312.284C305.463 310.268 305.474 307.888 305.814 305.087C305.895 304.415 305.985 303.761 306.084 303.124M305.705 312.284C307.704 312.938 312.75 313.331 316.938 309.667M306.084 303.124C309.266 302.656 314.766 302.975 317.383 298.303M273.095 285.051C275.729 282.899 278.776 280.441 281.288 277.93C284.199 275.02 288.536 271.527 290.603 269.199M273.095 285.051C272.877 280.76 271.262 269.909 266.551 260.827M290.603 269.199C283.616 263.96 270.739 253.401 271.786 245.55M271.786 245.55C284.219 236.391 299.791 219.784 307.486 209.827C317.383 197.021 325.881 182.96 333.297 174.237C319.163 167.432 314.073 153.429 313.308 144.634C311.059 118.777 298.834 104.45 292.072 95.0722M91.8322 154.609C87.0139 161.147 77.0293 169.174 68.2746 175.456M68.2746 175.456C74.8184 166.98 89.7382 145.842 97.0672 129.093C101.215 119.615 108.771 107.875 116.012 97.6892M130.44 78.7158C126.937 82.9762 121.567 89.8751 116.012 97.6892M116.012 97.6892C117.986 72.1733 124.42 18.1321 134.367 6.09388M134.367 6.09388C146.8 -8.95392 177.556 34.881 182.791 51.8915M134.367 6.09388C140.474 3.91301 155.438 10.0193 166.431 51.8915C167.246 54.9934 166.014 58.4858 163.159 59.7426M182.791 51.8915L177.556 53.8544M182.791 51.8915C190.207 49.4926 208.05 44.4331 220.09 43.3863L217.473 49.9288C220.406 48.7884 226.114 46.8692 230.56 46.1893M230.56 46.1893C232.066 45.959 236.564 46.1298 237.623 46.2622L230.56 51.8915H239.952L235.294 55.5754C245.546 58.8467 271.132 70.9958 292.072 95.0722M230.56 46.1893C240.376 39.5848 264.064 26.2449 280.293 25.7215C281.011 26.0806 281.813 26.7204 282.654 27.6843M292.072 95.0722C294.782 52.6226 287.944 33.7458 282.654 27.6843M282.654 27.6843C275.76 35.7534 262.017 54.9296 261.493 68.5381M86.8043 413.693C73.6477 407.587 47.858 383.728 49.9521 337.145C52.5696 278.917 52.2651 276.612 48.9931 267.453L55.187 268.449C50.8245 260.598 46.5329 254.055 40.3139 248.167H49.2976C43.6264 239.88 28.6193 221.343 13.9613 213.492C-4.36129 203.678 4.79999 189.939 9.38063 186.668C13.9613 183.396 25.0865 180.779 44.0634 197.79C63.0404 214.8 76.7823 242.933 78.7454 285.46C80.7086 327.986 72.422 368.55 91.2888 377.055M86.8043 413.693C86.235 401.634 88.084 389.33 91.2888 377.055" stroke="#231F20" stroke-width="5" stroke-linecap="round"/>
<path d="M212.786 196.414C224.816 189.196 241.795 196.402 241.309 197.768C238.325 206.144 229.587 208.998 225.341 209.18C213.595 202.982 211.282 197.316 212.786 196.414Z" fill="#EB6D5C"/>
<path d="M225.341 209.18C213.595 202.982 211.282 197.316 212.786 196.414C224.816 189.196 241.795 196.402 241.309 197.768C238.325 206.144 229.587 208.998 225.341 209.18ZM225.341 209.18C225.282 211.975 223.872 216.391 222.43 218.8M222.43 218.8C214.771 228.451 201.981 223.731 199.658 215.584M222.43 218.8C223.155 221.776 232.321 231.701 243.313 221.068" stroke="#231F20" stroke-width="4" stroke-linecap="round"/>
</svg>
